<svg width="1440" height="846" viewBox="0 0 1440 846" fill="none" xmlns="http://www.w3.org/2000/svg">
<g clip-path="url(#clip0_1_2)">
<path d="M0 846H1440V0H146C65.3664 0 0 65.3665 0 146V846Z" fill="#6070FF"/>
<path d="M1310.14 79.0873L1211.59 121.279L1221.31 143.985L1319.86 101.793L1310.14 79.0873Z" fill="#7F8CFF"/>
<path d="M1357.7 151.842C1352.73 143.018 1345.75 135.488 1337.32 129.863C1328.9 124.238 1319.27 120.675 1309.22 119.463C1299.16 118.252 1288.96 119.425 1279.45 122.888C1269.93 126.351 1261.36 132.007 1254.43 139.397C1247.51 146.788 1242.42 155.705 1239.58 165.427C1236.75 175.15 1236.24 185.404 1238.1 195.359C1239.96 205.315 1244.14 214.692 1250.3 222.731C1256.46 230.77 1264.43 237.246 1273.56 241.633L1285.58 216.618C1280.38 214.119 1275.84 210.43 1272.33 205.85C1268.82 201.27 1266.44 195.928 1265.38 190.256C1264.32 184.585 1264.61 178.743 1266.23 173.204C1267.84 167.665 1270.74 162.585 1274.69 158.375C1278.63 154.164 1283.51 150.942 1288.94 148.969C1294.36 146.996 1300.17 146.328 1305.9 147.018C1311.63 147.709 1317.11 149.738 1321.91 152.943C1326.71 156.148 1330.68 160.437 1333.51 165.464L1357.7 151.842Z" fill="white"/>
<path d="M483.5 141C490.956 141 497 134.956 497 127.5C497 120.044 490.956 114 483.5 114C476.044 114 470 120.044 470 127.5C470 134.956 476.044 141 483.5 141Z" fill="#7F8CFF"/>
<path d="M178.042 425.91L83.8574 355.606L96.4343 338.757L190.619 409.061L178.042 425.91Z" fill="#7F8CFF"/>
<path d="M91.1005 422.793C99.8063 432.788 114.966 433.833 124.961 425.127C134.956 416.422 136.001 401.262 127.295 391.267C118.59 381.272 103.43 380.227 93.4347 388.932C83.4398 397.638 82.3947 412.798 91.1005 422.793Z" fill="white"/>
<path d="M387.911 741L337 763.347L340.998 772.455L391.909 750.107L387.911 741Z" fill="white"/>
<path d="M366.13 762.682C363.986 767.704 363.925 773.372 365.959 778.439C367.994 783.506 371.959 787.558 376.981 789.702C382.002 791.846 387.67 791.907 392.737 789.872C397.805 787.837 401.856 783.873 404 778.851L366.13 762.682Z" fill="#7F8CFF"/>
<path d="M1166.5 596C1187.21 596 1204 579.211 1204 558.5C1204 537.789 1187.21 521 1166.5 521C1145.79 521 1129 537.789 1129 558.5C1129 579.211 1145.79 596 1166.5 596Z" fill="#7F8CFF"/>
</g>
<defs>
<clipPath id="clip0_1_2">
<rect width="1440" height="846" fill="white"/>
</clipPath>
</defs>
</svg>
