<svg width="375" height="779" viewBox="0 0 375 779" fill="none" xmlns="http://www.w3.org/2000/svg">
<rect width="375" height="779" fill="#F5F5F5"/>
<g clip-path="url(#clip0_0_1)">
<path d="M0 779H375V0H80C35.8172 0 0 35.8172 0 80V779Z" fill="#6070FF"/>
<path d="M378.673 20.9996L310 50.3994L316.773 66.2211L385.446 36.8213L378.673 20.9996Z" fill="#7F8CFF"/>
<path d="M412.207 71.4103C408.738 65.3223 403.869 60.1276 397.993 56.2466C392.117 52.3657 385.4 49.9077 378.384 49.0716C371.369 48.2356 364.253 49.045 357.613 51.4343C350.973 53.8235 344.995 57.7256 340.163 62.8244C335.332 67.9233 331.782 74.0756 329.803 80.7833C327.823 87.491 327.468 94.5655 328.767 101.434C330.066 108.302 332.983 114.772 337.281 120.318C341.579 125.865 347.137 130.332 353.505 133.359L361.894 116.101C358.266 114.377 355.099 111.831 352.651 108.672C350.202 105.512 348.541 101.826 347.801 97.9132C347.06 94.0003 347.263 89.9699 348.39 86.1486C349.518 82.3272 351.54 78.8222 354.293 75.9174C357.046 73.0126 360.451 70.7896 364.234 69.4285C368.017 68.0673 372.071 67.6062 376.067 68.0825C380.064 68.5588 383.891 69.9591 387.239 72.1701C390.586 74.381 393.36 77.3405 395.336 80.8088L412.207 71.4103Z" fill="white"/>
<path d="M163.5 76C169.299 76 174 71.299 174 65.5C174 59.701 169.299 55 163.5 55C157.701 55 153 59.701 153 65.5C153 71.299 157.701 76 163.5 76Z" fill="#7F8CFF"/>
<path d="M319.849 720.455L258.805 674.889L266.957 663.969L328 709.535L319.849 720.455Z" fill="#7F8CFF"/>
<path d="M263.498 718.436C269.141 724.914 278.967 725.591 285.445 719.949C291.923 714.306 292.6 704.48 286.958 698.002C281.315 691.524 271.489 690.847 265.011 696.489C258.533 702.132 257.856 711.958 263.498 718.436Z" fill="white"/>
</g>
<defs>
<clipPath id="clip0_0_1">
<rect width="375" height="779" fill="white"/>
</clipPath>
</defs>
</svg>
