<svg width="1384" height="687" viewBox="0 0 1384 687" fill="none" xmlns="http://www.w3.org/2000/svg">
<g clip-path="url(#clip0_1_2)">
<path d="M1383.58 123.725C1374.95 109.145 1362.83 96.7043 1348.21 87.4098C1333.58 78.1156 1316.86 72.229 1299.4 70.2268C1281.94 68.2245 1264.23 70.1629 1247.7 75.885C1231.18 81.6069 1216.3 90.9517 1204.27 103.162C1192.25 115.373 1183.41 130.108 1178.49 146.171C1173.56 162.235 1172.68 179.178 1175.91 195.627C1179.14 212.076 1186.4 227.568 1197.1 240.852C1207.8 254.134 1221.63 264.834 1237.48 272.083L1258.36 230.752C1249.33 226.622 1241.45 220.527 1235.35 212.96C1229.26 205.392 1225.12 196.566 1223.28 187.195C1221.44 177.824 1221.94 168.172 1224.75 159.021C1227.56 149.869 1232.59 141.475 1239.44 134.519C1246.29 127.562 1254.77 122.238 1264.18 118.979C1273.6 115.719 1283.69 114.614 1293.63 115.755C1303.58 116.896 1313.11 120.249 1321.44 125.544C1329.77 130.839 1336.67 137.926 1341.59 146.232L1383.58 123.725Z" fill="#6070FF"/>
<path d="M246.234 671.569C248.556 668.937 250.195 665.822 251.016 662.475C251.838 659.129 251.82 655.645 250.963 652.307C250.107 648.969 248.436 645.869 246.087 643.259C243.737 640.649 240.775 638.603 237.439 637.285C234.104 635.967 230.489 635.415 226.888 635.674C223.287 635.933 219.8 636.995 216.71 638.774C213.621 640.553 211.015 643 209.103 645.916C207.192 648.832 206.03 652.134 205.71 655.558L215.568 656.392C215.75 654.442 216.412 652.56 217.501 650.899C218.59 649.238 220.075 647.844 221.835 646.83C223.595 645.816 225.581 645.211 227.633 645.064C229.685 644.917 231.744 645.231 233.644 645.982C235.544 646.733 237.232 647.899 238.571 649.385C239.909 650.873 240.861 652.638 241.349 654.54C241.837 656.442 241.847 658.427 241.379 660.333C240.911 662.239 239.977 664.014 238.654 665.514L246.234 671.569Z" fill="#EBEBFF"/>
<path d="M1288.67 1.19677e-06L1112 97.0554L1135.5 135.785L1312.17 38.73L1288.67 1.19677e-06Z" fill="#EBEBFF"/>
<path d="M845.639 661.259L697.44 600.411L686 625.638L834.199 686.486L845.639 661.259Z" fill="#EBEBFF"/>
<path d="M714 124.394L659.253 135.661L657.135 126.342L711.881 115.075L714 124.394Z" fill="#6070FF"/>
<path d="M75.8961 20.5216L0.601562 95.0793L14.6191 107.896L89.9136 33.3384L75.8961 20.5216Z" fill="#EBEBFF"/>
<path d="M828.5 652.745C841.479 652.745 852 642.734 852 630.384C852 618.035 841.479 608.024 828.5 608.024C815.521 608.024 805 618.035 805 630.384C805 642.734 815.521 652.745 828.5 652.745Z" fill="#6070FF"/>
<path d="M685.5 153.195C691.851 153.195 697 148.296 697 142.253C697 136.209 691.851 131.31 685.5 131.31C679.149 131.31 674 136.209 674 142.253C674 148.296 679.149 153.195 685.5 153.195Z" fill="#EBEBFF"/>
<path d="M46.9842 69.5317C42.7936 78.871 42.6736 89.4118 46.6508 98.8348C50.6279 108.259 58.3763 115.793 68.1914 119.781C78.0065 123.768 89.0843 123.882 98.9878 120.098C108.891 116.313 116.809 108.94 121 99.6007L46.9842 69.5317Z" fill="#6070FF"/>
</g>
<defs>
<clipPath id="clip0_1_2">
<rect width="1384" height="687" fill="white"/>
</clipPath>
</defs>
</svg>
