<svg width="1384" height="722" viewBox="0 0 1384 722" fill="none" xmlns="http://www.w3.org/2000/svg">
<g clip-path="url(#clip0_1_2)">
<path d="M1383.58 130.028C1374.95 114.705 1362.83 101.631 1348.21 91.863C1333.58 82.0953 1316.86 75.9088 1299.4 73.8046C1281.94 71.7003 1264.23 73.7374 1247.7 79.751C1231.18 85.7645 1216.3 95.5853 1204.27 108.418C1192.25 121.251 1183.41 136.736 1178.49 153.618C1173.56 170.5 1172.68 188.306 1175.91 205.593C1179.14 222.88 1186.4 239.162 1197.1 253.122C1207.8 267.081 1221.63 278.326 1237.48 285.945L1258.36 242.508C1249.33 238.168 1241.45 231.762 1235.35 223.809C1229.26 215.856 1225.12 206.58 1223.28 196.732C1221.44 186.883 1221.94 176.74 1224.75 167.122C1227.56 157.504 1232.59 148.683 1239.44 141.372C1246.29 134.061 1254.77 128.466 1264.18 125.04C1273.6 121.614 1283.69 120.453 1293.63 121.652C1303.58 122.851 1313.11 126.375 1321.44 131.94C1329.77 137.505 1336.67 144.953 1341.59 153.682L1383.58 130.028Z" fill="#6070FF"/>
<path d="M246.234 705.783C248.556 703.017 250.195 699.743 251.016 696.226C251.838 692.709 251.82 689.048 250.963 685.539C250.107 682.031 248.436 678.773 246.087 676.031C243.737 673.288 240.775 671.137 237.439 669.752C234.104 668.367 230.489 667.787 226.888 668.059C223.287 668.331 219.8 669.447 216.71 671.317C213.621 673.187 211.015 675.758 209.103 678.823C207.192 681.887 206.03 685.358 205.71 688.956L215.568 689.833C215.75 687.783 216.412 685.805 217.501 684.06C218.59 682.314 220.075 680.849 221.835 679.784C223.595 678.718 225.581 678.082 227.633 677.928C229.685 677.773 231.744 678.103 233.644 678.892C235.544 679.681 237.232 680.907 238.571 682.469C239.909 684.032 240.861 685.887 241.349 687.886C241.837 689.885 241.847 691.971 241.379 693.974C240.911 695.978 239.977 697.843 238.654 699.419L246.234 705.783Z" fill="#EBEBFF"/>
<path d="M1288.67 0L1112 102L1135.5 142.703L1312.17 40.7032L1288.67 0Z" fill="#EBEBFF"/>
<path d="M845.639 694.947L697.44 631L686 657.512L834.199 721.459L845.639 694.947Z" fill="#EBEBFF"/>
<path d="M714 130.731L659.253 142.572L657.135 132.778L711.881 120.937L714 130.731Z" fill="#6070FF"/>
<path d="M75.8961 21.5671L0.601562 99.9232L14.6191 113.393L89.9136 35.0369L75.8961 21.5671Z" fill="#EBEBFF"/>
<path d="M828.5 686C841.479 686 852 675.479 852 662.5C852 649.521 841.479 639 828.5 639C815.521 639 805 649.521 805 662.5C805 675.479 815.521 686 828.5 686Z" fill="#6070FF"/>
<path d="M685.5 161C691.851 161 697 155.851 697 149.5C697 143.149 691.851 138 685.5 138C679.149 138 674 143.149 674 149.5C674 155.851 679.149 161 685.5 161Z" fill="#EBEBFF"/>
<path d="M46.9842 73.0741C42.7936 82.8892 42.6736 93.967 46.6508 103.87C50.6279 113.774 58.3763 121.692 68.1914 125.883C78.0065 130.073 89.0843 130.193 98.9878 126.216C108.891 122.239 116.809 114.49 121 104.675L46.9842 73.0741Z" fill="#6070FF"/>
<path d="M221.155 650C220.821 654.881 222.439 659.695 225.654 663.383C228.87 667.071 233.418 669.331 238.299 669.666C243.181 670 247.995 668.381 251.683 665.166C255.371 661.951 257.63 657.403 257.965 652.521L221.155 650Z" fill="#6070FF"/>
</g>
<defs>
<clipPath id="clip0_1_2">
<rect width="1384" height="722" fill="white"/>
</clipPath>
</defs>
</svg>
