<svg width="1440" height="916" viewBox="0 0 1440 916" fill="none" xmlns="http://www.w3.org/2000/svg">
<g clip-path="url(#clip0_1_2)">
<path d="M0 0H1440V916H146C65.3664 916 0 850.634 0 770V0Z" fill="white"/>
<path d="M1417.58 248.028C1408.95 232.705 1396.83 219.631 1382.21 209.863C1367.58 200.095 1350.86 193.909 1333.4 191.805C1315.94 189.7 1298.23 191.737 1281.7 197.751C1265.18 203.764 1250.3 213.585 1238.27 226.418C1226.25 239.251 1217.41 254.736 1212.49 271.618C1207.56 288.5 1206.68 306.306 1209.91 323.593C1213.14 340.88 1220.4 357.162 1231.1 371.122C1241.8 385.081 1255.63 396.326 1271.48 403.945L1292.36 360.508C1283.33 356.168 1275.45 349.762 1269.35 341.809C1263.26 333.856 1259.12 324.58 1257.28 314.732C1255.44 304.883 1255.94 294.74 1258.75 285.122C1261.56 275.504 1266.59 266.683 1273.44 259.372C1280.29 252.061 1288.77 246.466 1298.18 243.04C1307.6 239.614 1317.69 238.453 1327.63 239.652C1337.58 240.851 1347.11 244.375 1355.44 249.94C1363.77 255.505 1370.67 262.953 1375.59 271.682L1417.58 248.028Z" fill="#6070FF"/>
<path d="M280.234 823.783C282.556 821.017 284.195 817.743 285.016 814.226C285.838 810.709 285.82 807.048 284.963 803.539C284.107 800.031 282.436 796.773 280.087 794.031C277.737 791.288 274.775 789.137 271.439 787.752C268.104 786.367 264.489 785.787 260.888 786.059C257.287 786.331 253.8 787.447 250.71 789.317C247.621 791.187 245.015 793.758 243.103 796.823C241.192 799.887 240.03 803.358 239.71 806.956L249.568 807.833C249.75 805.783 250.412 803.805 251.501 802.06C252.59 800.314 254.075 798.849 255.835 797.784C257.595 796.718 259.581 796.082 261.633 795.928C263.685 795.773 265.744 796.103 267.644 796.892C269.544 797.681 271.232 798.907 272.571 800.469C273.909 802.032 274.861 803.887 275.349 805.886C275.837 807.885 275.847 809.971 275.379 811.974C274.911 813.978 273.977 815.843 272.654 817.419L280.234 823.783Z" fill="#EBEBFF"/>
<path d="M1322.67 118L1146 220L1169.5 260.703L1346.17 158.703L1322.67 118Z" fill="#EBEBFF"/>
<path d="M879.639 812.947L731.44 749L720 775.512L868.199 839.459L879.639 812.947Z" fill="#EBEBFF"/>
<path d="M748 248.731L693.253 260.572L691.135 250.778L745.881 238.937L748 248.731Z" fill="#6070FF"/>
<path d="M109.896 139.567L34.6016 217.923L48.6191 231.393L123.914 153.037L109.896 139.567Z" fill="#EBEBFF"/>
<path d="M862.5 804C875.479 804 886 793.479 886 780.5C886 767.521 875.479 757 862.5 757C849.521 757 839 767.521 839 780.5C839 793.479 849.521 804 862.5 804Z" fill="#6070FF"/>
<path d="M719.5 279C725.851 279 731 273.851 731 267.5C731 261.149 725.851 256 719.5 256C713.149 256 708 261.149 708 267.5C708 273.851 713.149 279 719.5 279Z" fill="#EBEBFF"/>
<path d="M80.9842 191.074C76.7936 200.889 76.6736 211.967 80.6508 221.87C84.6279 231.774 92.3763 239.692 102.191 243.883C112.006 248.073 123.084 248.193 132.988 244.216C142.891 240.239 150.809 232.49 155 222.675L80.9842 191.074Z" fill="#6070FF"/>
<path d="M255.155 768C254.821 772.881 256.439 777.695 259.654 781.383C262.87 785.071 267.418 787.331 272.299 787.666C277.181 788 281.995 786.381 285.683 783.166C289.371 779.951 291.63 775.403 291.965 770.521L255.155 768Z" fill="#6070FF"/>
</g>
<defs>
<clipPath id="clip0_1_2">
<rect width="1440" height="916" fill="white"/>
</clipPath>
</defs>
</svg>
